<svg width="30" height="30" viewBox="0 0 30 30" fill="none" xmlns="http://www.w3.org/2000/svg">
<path fill-rule="evenodd" clip-rule="evenodd" d="M30 15C30 23.2843 23.2843 30 15 30C6.71573 30 0 23.2843 0 15C0 6.71573 6.71573 0 15 0C23.2843 0 30 6.71573 30 15Z" fill="#E84142"/>
<path fill-rule="evenodd" clip-rule="evenodd" d="M10.7513 20.969H7.84028C7.22859 20.969 6.92641 20.969 6.74215 20.851C6.54318 20.7221 6.42156 20.5083 6.40681 20.2725C6.39578 20.0551 6.54684 19.7898 6.84902 19.2591L14.0368 6.58964C14.3427 6.05164 14.4974 5.78266 14.6927 5.68315C14.9028 5.57632 15.1534 5.57632 15.3634 5.68315C15.5587 5.78266 15.7135 6.05164 16.0193 6.58964L17.497 9.16909L17.5045 9.18225C17.8349 9.75944 18.0024 10.0521 18.0755 10.3593C18.1566 10.6946 18.1566 11.0484 18.0755 11.3837C18.0018 11.6933 17.836 11.9881 17.5006 12.574L13.7251 19.2481L13.7153 19.2652C13.3828 19.8471 13.2143 20.142 12.9807 20.3647C12.7265 20.6079 12.4206 20.7847 12.0853 20.8842C11.7795 20.969 11.4368 20.969 10.7513 20.969Z" fill="white"/>
<path fill-rule="evenodd" clip-rule="evenodd" d="M18.1015 20.9692H22.2728C22.8882 20.9692 23.1977 20.9692 23.382 20.8476C23.581 20.7186 23.7063 20.5012 23.7173 20.2654C23.728 20.0552 23.5802 19.8001 23.2905 19.3003C23.2806 19.2833 23.2706 19.266 23.2604 19.2484L21.1711 15.674L21.1473 15.6338C20.8537 15.1373 20.7054 14.8865 20.5151 14.7896C20.3051 14.6828 20.0582 14.6828 19.8482 14.7896C19.6565 14.8891 19.5018 15.1507 19.1959 15.6777L17.114 19.252L17.1068 19.2644C16.802 19.7905 16.6497 20.0534 16.6607 20.2691C16.6755 20.5049 16.797 20.7224 16.996 20.8513C17.1766 20.9692 17.4861 20.9692 18.1015 20.9692Z" fill="white"/>
</svg>
