<svg width="22" height="23" viewBox="0 0 22 23" fill="none" xmlns="http://www.w3.org/2000/svg">
<path d="M0 3.5C0 2.70435 0.316071 1.94129 0.87868 1.37868C1.44129 0.816071 2.20435 0.5 3 0.5H14.3333C15.129 0.5 15.892 0.816071 16.4547 1.37868C17.0173 1.94129 17.3333 2.70435 17.3333 3.5V13.8333H22V18.1667C22 19.3159 21.5435 20.4181 20.7308 21.2308C19.9181 22.0435 18.8159 22.5 17.6667 22.5H4.33333C3.18406 22.5 2.08186 22.0435 1.2692 21.2308C0.456546 20.4181 0 19.3159 0 18.1667V3.5ZM17.3333 15.8333V20.5H17.6667C18.2855 20.5 18.879 20.2542 19.3166 19.8166C19.7542 19.379 20 18.7855 20 18.1667V15.8333H17.3333ZM15.3333 20.5V3.5C15.3333 3.23478 15.228 2.98043 15.0404 2.79289C14.8529 2.60536 14.5985 2.5 14.3333 2.5H3C2.73478 2.5 2.48043 2.60536 2.29289 2.79289C2.10536 2.98043 2 3.23478 2 3.5V18.1667C2 19.4547 3.04533 20.5 4.33333 20.5H15.3333ZM4 6.83333C4 6.56812 4.10536 6.31376 4.29289 6.12623C4.48043 5.93869 4.73478 5.83333 5 5.83333H12.3333C12.5985 5.83333 12.8529 5.93869 13.0404 6.12623C13.228 6.31376 13.3333 6.56812 13.3333 6.83333C13.3333 7.09855 13.228 7.3529 13.0404 7.54044C12.8529 7.72798 12.5985 7.83333 12.3333 7.83333H5C4.73478 7.83333 4.48043 7.72798 4.29289 7.54044C4.10536 7.3529 4 7.09855 4 6.83333ZM4 11.5C4 11.2348 4.10536 10.9804 4.29289 10.7929C4.48043 10.6054 4.73478 10.5 5 10.5H12.3333C12.5985 10.5 12.8529 10.6054 13.0404 10.7929C13.228 10.9804 13.3333 11.2348 13.3333 11.5C13.3333 11.7652 13.228 12.0196 13.0404 12.2071C12.8529 12.3946 12.5985 12.5 12.3333 12.5H5C4.73478 12.5 4.48043 12.3946 4.29289 12.2071C4.10536 12.0196 4 11.7652 4 11.5ZM4 16.1667C4 15.9015 4.10536 15.6471 4.29289 15.4596C4.48043 15.272 4.73478 15.1667 5 15.1667H8.33333C8.59855 15.1667 8.8529 15.272 9.04044 15.4596C9.22798 15.6471 9.33333 15.9015 9.33333 16.1667C9.33333 16.4319 9.22798 16.6862 9.04044 16.8738C8.8529 17.0613 8.59855 17.1667 8.33333 17.1667H5C4.73478 17.1667 4.48043 17.0613 4.29289 16.8738C4.10536 16.6862 4 16.4319 4 16.1667Z" fill="black"/>
</svg>
