<svg width="30" height="30" viewBox="0 0 30 30" fill="none" xmlns="http://www.w3.org/2000/svg">
<path d="M15 30C23.2843 30 30 23.2843 30 15C30 6.71573 23.2843 0 15 0C6.71573 0 0 6.71573 0 15C0 23.2843 6.71573 30 15 30Z" fill="#8DC351"/>
<path d="M19.4109 10.2403C18.6834 8.39156 16.8591 8.22469 14.7347 8.63719L13.9781 6L12.3731 6.46031L13.11 9.02906C12.6881 9.14906 12.2587 9.28219 11.8322 9.41344L11.0916 6.82781L9.4875 7.28719L10.2422 9.92437C9.89719 10.0312 9.55781 10.1362 9.225 10.2319L9.22219 10.2225L7.00781 10.8572L7.5 12.5728C7.5 12.5728 8.67937 12.2091 8.66531 12.2372C9.31594 12.0506 9.63562 12.3675 9.79031 12.6759L10.6528 15.6797C10.6969 15.6675 10.7559 15.6525 10.8253 15.6422L10.6556 15.6909L11.8622 19.9003C11.8922 20.1131 11.8659 20.4741 11.4122 20.6053C11.4375 20.6175 10.2441 20.9391 10.2441 20.9391L10.4756 22.9481L12.5644 22.3481C12.9534 22.2384 13.3378 22.1353 13.7137 22.0294L14.4797 24.6966L16.0828 24.2372L15.3263 21.5981C15.7563 21.484 16.185 21.3653 16.6125 21.2419L17.3644 23.8697L18.9703 23.4094L18.2072 20.7469C20.8612 19.8178 22.5553 18.5962 22.0631 15.9937C21.6675 13.8994 20.4469 13.2637 18.8091 13.335C19.6041 12.5944 19.9463 11.5931 19.4109 10.2412V10.2403ZM18.8016 16.5872C19.3734 18.5813 15.8953 19.3331 14.8078 19.6462L13.7944 16.1119C14.8819 15.7997 18.2044 14.5087 18.8006 16.5881L18.8016 16.5872ZM16.6247 11.8153C17.1441 13.6294 14.2369 14.2341 13.3303 14.4937L12.4116 11.2884C13.3172 11.0287 16.0819 9.92437 16.6247 11.8162V11.8153Z" fill="white"/>
</svg>
