<svg width="25" height="26" viewBox="0 0 25 26" fill="none" xmlns="http://www.w3.org/2000/svg">
<path d="M22.3736 19.5H2.62693C2.51764 19.5 2.41282 19.4566 2.33554 19.3793C2.25826 19.302 2.21484 19.1972 2.21484 19.0879V6.91208C2.21484 6.80279 2.25826 6.69798 2.33554 6.6207C2.41282 6.54342 2.51764 6.5 2.62693 6.5H22.374C22.4833 6.5 22.5881 6.54342 22.6654 6.6207C22.7426 6.69798 22.7861 6.80279 22.7861 6.91208V19.0879C22.7861 19.1972 22.7426 19.302 22.6654 19.3793C22.5881 19.4566 22.4829 19.5 22.3736 19.5Z" fill="#92D3F5"/>
<path d="M22.3913 10.5219H2.6113C2.50201 10.5219 2.3972 10.4785 2.31992 10.4013C2.24263 10.324 2.19922 10.2192 2.19922 10.1099V8.95603C2.19922 8.84674 2.24263 8.74192 2.31992 8.66464C2.3972 8.58736 2.50201 8.54395 2.6113 8.54395H22.3913C22.5006 8.54395 22.6054 8.58736 22.6827 8.66464C22.76 8.74192 22.8034 8.84674 22.8034 8.95603V10.1099C22.8034 10.2192 22.76 10.324 22.6827 10.4013C22.6054 10.4785 22.5006 10.5219 22.3913 10.5219Z" fill="#3F3F3F"/>
<path d="M6.31882 17.4436H5.5165C5.18608 17.4427 4.86948 17.311 4.63584 17.0773C4.4022 16.8437 4.27051 16.5271 4.26953 16.1967V15.3939C4.27051 15.0636 4.40214 14.7471 4.63569 14.5134C4.86924 14.2798 5.18574 14.1481 5.51608 14.147H6.31841C6.6489 14.1478 6.9656 14.2795 7.19933 14.5131C7.43306 14.7468 7.56481 15.0635 7.56579 15.3939V16.1967C7.56481 16.5272 7.43306 16.8438 7.19933 17.0775C6.9656 17.3111 6.64931 17.4428 6.31882 17.4436Z" fill="#FCEA2B"/>
<path d="M22.3736 19.5H2.62693C2.51764 19.5 2.41282 19.4566 2.33554 19.3793C2.25826 19.302 2.21484 19.1972 2.21484 19.0879V6.91208C2.21484 6.80279 2.25826 6.69798 2.33554 6.6207C2.41282 6.54342 2.51764 6.5 2.62693 6.5H22.374C22.4833 6.5 22.5881 6.54342 22.6654 6.6207C22.7426 6.69798 22.7861 6.80279 22.7861 6.91208V19.0879C22.7861 19.1972 22.7426 19.302 22.6654 19.3793C22.5881 19.4566 22.4829 19.5 22.3736 19.5Z" stroke="black" stroke-width="0.7" stroke-miterlimit="10"/>
<path d="M22.3913 10.5219H2.6113C2.50201 10.5219 2.3972 10.4785 2.31992 10.4013C2.24263 10.324 2.19922 10.2192 2.19922 10.1099V8.95603C2.19922 8.84674 2.24263 8.74192 2.31992 8.66464C2.3972 8.58736 2.50201 8.54395 2.6113 8.54395H22.3913C22.5006 8.54395 22.6054 8.58736 22.6827 8.66464C22.76 8.74192 22.8034 8.84674 22.8034 8.95603V10.1099C22.8034 10.2192 22.76 10.324 22.6827 10.4013C22.6054 10.4785 22.5006 10.5219 22.3913 10.5219Z" stroke="black" stroke-width="0.5" stroke-miterlimit="10"/>
<path d="M6.31882 17.4436H5.5165C5.18608 17.4427 4.86948 17.311 4.63584 17.0773C4.4022 16.8437 4.27051 16.5271 4.26953 16.1967V15.3939C4.27051 15.0636 4.40214 14.7471 4.63569 14.5134C4.86924 14.2798 5.18574 14.1481 5.51608 14.147H6.31841C6.6489 14.1478 6.9656 14.2795 7.19933 14.5131C7.43306 14.7468 7.56481 15.0635 7.56579 15.3939V16.1967C7.56481 16.5272 7.43306 16.8438 7.19933 17.0775C6.9656 17.3111 6.64931 17.4428 6.31882 17.4436Z" stroke="black" stroke-width="0.5" stroke-miterlimit="10" stroke-linecap="round" stroke-linejoin="round"/>
</svg>
