<svg width="30" height="30" viewBox="0 0 30 30" fill="none" xmlns="http://www.w3.org/2000/svg">
<circle cx="15" cy="15" r="15" fill="#7950DD"/>
<path d="M20.0922 11.5962C19.7232 11.3742 19.2435 11.3742 18.8376 11.5962L15.9594 13.2981L14.0037 14.408L11.1255 16.1099C10.7565 16.3319 10.2768 16.3319 9.87085 16.1099L7.58303 14.778C7.21402 14.556 6.95572 14.1491 6.95572 13.705V11.0782C6.95572 10.6342 7.17712 10.2273 7.58303 10.0053L9.83395 8.71036C10.203 8.48837 10.6826 8.48837 11.0886 8.71036L13.3395 10.0053C13.7085 10.2273 13.9668 10.6342 13.9668 11.0782V12.7801L15.9225 11.6332V9.93129C15.9225 9.48731 15.7011 9.08034 15.2952 8.85835L11.1255 6.41649C10.7565 6.1945 10.2768 6.1945 9.87085 6.41649L5.62731 8.85835C5.2214 9.08034 5 9.48731 5 9.93129V14.852C5 15.296 5.2214 15.7029 5.62731 15.9249L9.87085 18.3668C10.2399 18.5888 10.7196 18.5888 11.1255 18.3668L14.0037 16.7019L15.9594 15.555L18.8376 13.8901C19.2066 13.6681 19.6864 13.6681 20.0922 13.8901L22.3431 15.185C22.7122 15.407 22.9705 15.814 22.9705 16.2579V18.8848C22.9705 19.3287 22.7491 19.7357 22.3431 19.9577L20.0922 21.2897C19.7232 21.5116 19.2435 21.5116 18.8376 21.2897L16.5867 19.9947C16.2177 19.7727 15.9594 19.3657 15.9594 18.9217V17.2199L14.0037 18.3668V20.0687C14.0037 20.5127 14.2251 20.9196 14.631 21.1416L18.8745 23.5835C19.2435 23.8055 19.7232 23.8055 20.1291 23.5835L24.3727 21.1416C24.7417 20.9196 25 20.5127 25 20.0687V15.148C25 14.704 24.7786 14.297 24.3727 14.0751L20.0922 11.5962Z" fill="white"/>
</svg>
