<svg width="22" height="23" viewBox="0 0 22 23" fill="none" xmlns="http://www.w3.org/2000/svg">
<path d="M19.8451 12.2259C19.6688 12.0252 19.5715 11.7672 19.5715 11.5C19.5715 11.2328 19.6688 10.9748 19.8451 10.7741L21.2529 9.19031C21.408 9.01727 21.5044 8.79954 21.5281 8.56836C21.5518 8.33717 21.5017 8.10442 21.3849 7.90349L19.1852 4.09801C19.0696 3.89731 18.8936 3.73822 18.6823 3.64342C18.471 3.54863 18.2351 3.52296 18.0083 3.57008L15.9406 3.98802C15.6775 4.04239 15.4036 3.99857 15.1706 3.86484C14.9376 3.73111 14.7616 3.51672 14.6758 3.26212L14.0049 1.24939C13.9311 1.03094 13.7905 0.841201 13.603 0.706994C13.4155 0.572787 13.1906 0.500901 12.96 0.501496H8.56063C8.32079 0.488977 8.08345 0.555307 7.88485 0.690356C7.68625 0.825404 7.53731 1.02175 7.46078 1.24939L6.84487 3.26212C6.75908 3.51672 6.58307 3.73111 6.35006 3.86484C6.11704 3.99857 5.84314 4.04239 5.58004 3.98802L3.45733 3.57008C3.24236 3.5397 3.02321 3.57362 2.82749 3.66757C2.63177 3.76151 2.46823 3.91128 2.35748 4.09801L0.157775 7.90349C0.0380669 8.10218 -0.0157575 8.33362 0.00399636 8.56474C0.0237502 8.79587 0.116071 9.01482 0.26776 9.19031L1.66457 10.7741C1.8409 10.9748 1.93814 11.2328 1.93814 11.5C1.93814 11.7672 1.8409 12.0252 1.66457 12.2259L0.26776 13.8097C0.116071 13.9852 0.0237502 14.2041 0.00399636 14.4353C-0.0157575 14.6664 0.0380669 14.8978 0.157775 15.0965L2.35748 18.902C2.47307 19.1027 2.64907 19.2618 2.86038 19.3566C3.0717 19.4514 3.30755 19.477 3.53432 19.4299L5.60203 19.012C5.86514 18.9576 6.13904 19.0014 6.37205 19.1352C6.60507 19.2689 6.78108 19.4833 6.86686 19.7379L7.53777 21.7506C7.6143 21.9783 7.76324 22.1746 7.96184 22.3096C8.16044 22.4447 8.39778 22.511 8.63762 22.4985H13.037C13.2676 22.4991 13.4925 22.4272 13.68 22.293C13.8675 22.1588 14.0081 21.9691 14.0819 21.7506L14.7528 19.7379C14.8386 19.4833 15.0146 19.2689 15.2476 19.1352C15.4806 19.0014 15.7545 18.9576 16.0176 19.012L18.0853 19.4299C18.3121 19.477 18.548 19.4514 18.7593 19.3566C18.9706 19.2618 19.1466 19.1027 19.2622 18.902L21.4619 15.0965C21.5787 14.8956 21.6288 14.6628 21.6051 14.4316C21.5814 14.2005 21.485 13.9827 21.3299 13.8097L19.8451 12.2259ZM18.2063 13.6997L19.0862 14.6896L17.6784 17.1312L16.3806 16.8673C15.5884 16.7053 14.7644 16.8399 14.0649 17.2454C13.3655 17.6509 12.8392 18.2991 12.5861 19.067L12.1681 20.2988H9.35252L8.95658 19.045C8.70345 18.2771 8.1772 17.6289 7.47773 17.2234C6.77825 16.8179 5.95423 16.6834 5.16209 16.8453L3.86427 17.1092L2.43447 14.6786L3.31435 13.6887C3.85542 13.0838 4.15456 12.3006 4.15456 11.489C4.15456 10.6774 3.85542 9.89424 3.31435 9.2893L2.43447 8.29944L3.84227 5.87976L5.1401 6.14373C5.93223 6.30565 6.75625 6.17109 7.45573 5.7656C8.15521 5.3601 8.68146 4.7119 8.93458 3.94403L9.35252 2.7012H12.1681L12.5861 3.95503C12.8392 4.7229 13.3655 5.3711 14.0649 5.7766C14.7644 6.18209 15.5884 6.31665 16.3806 6.15473L17.6784 5.89076L19.0862 8.33243L18.2063 9.3223C17.6713 9.92585 17.3759 10.7045 17.3759 11.511C17.3759 12.3175 17.6713 13.0961 18.2063 13.6997ZM10.7603 7.1006C9.89021 7.1006 9.03963 7.35862 8.31616 7.84203C7.59268 8.32544 7.0288 9.01254 6.69582 9.81642C6.36284 10.6203 6.27571 11.5049 6.44546 12.3583C6.61522 13.2117 7.03422 13.9956 7.64949 14.6108C8.26475 15.2261 9.04865 15.6451 9.90205 15.8149C10.7555 15.9846 11.64 15.8975 12.4439 15.5645C13.2478 15.2315 13.9349 14.6677 14.4183 13.9442C14.9017 13.2207 15.1597 12.3701 15.1597 11.5C15.1597 10.3332 14.6962 9.2142 13.8712 8.38915C13.0461 7.56411 11.9271 7.1006 10.7603 7.1006ZM10.7603 13.6997C10.3253 13.6997 9.89998 13.5707 9.53824 13.329C9.17651 13.0873 8.89456 12.7437 8.72808 12.3418C8.56158 11.9398 8.51802 11.4976 8.6029 11.0709C8.68778 10.6442 8.89728 10.2522 9.20491 9.94458C9.51254 9.63694 9.90449 9.42744 10.3312 9.34257C10.7579 9.25769 11.2002 9.30125 11.6021 9.46774C12.0041 9.63423 12.3476 9.91617 12.5893 10.2779C12.831 10.6397 12.96 11.0649 12.96 11.5C12.96 12.0834 12.7283 12.6429 12.3158 13.0554C11.9032 13.4679 11.3437 13.6997 10.7603 13.6997Z" fill="black"/>
</svg>
